<?xml version="1.0" encoding="UTF-8"?>
<svg id="Layer_1" xmlns="http://www.w3.org/2000/svg" width="32" height="32" viewBox="0 0 32 32">
  <defs>
    <style>
      .cls-1 {
        fill: #fff;
      }

      .cls-2 {
        fill: #1943dc;
      }
    </style>
  </defs>
  <circle class="cls-2" cx="16" cy="16" r="16"/>
  <g>
    <path class="cls-1" d="M16.16,12.11c.06-.03.11-.07.17-.1.05-.03.11-.06.16-.08.34-.16.71-.27,1.1-.33.08-.01.16-.02.24-.02.05,0,.09,0,.14,0,.05,0,.09,0,.14,0,.37,0,.72.06,1.07.18h0c.08.03.16.06.24.09h0c.4.16.79.41,1.15.73.43.39.86.8,1.36,1.29l.16.16c.9.89,1.79,1.81,2.66,2.7.57.59,1.17,1.2,1.76,1.8.22.22.22.36,0,.57-.72.69-1.44,1.4-2.13,2.08-1.32,1.29-2.68,2.63-4.06,3.89-1.35,1.23-3.58,1.09-4.94-.29-.03-.03-.07-.07-.1-.11-.64-.69-1-1.55-1.05-2.44,0-.05.03-.09.08-.09.06,0,.13-.01.19-.02.36-.05.7-.14,1.02-.28.05-.02.1-.04.14-.06,0,0,0,0,0,0,.06-.03.13.02.13.09-.06.69.22,1.4.8,1.92.83.74,2.15.71,2.95-.08,1.28-1.23,2.52-2.45,3.84-3.75.37-.36.74-.73,1.12-1.1.03-.03.04-.09,0-.12l-4.82-4.91c-.54-.54-1.29-.76-2.01-.63-.06.01-.12.02-.18.04-.06.02-.13.04-.19.06-.11.04-.23.09-.33.15-.54.3-.96.85-1.09,1.42-.01.05-.02.1-.03.15,0,.02,0,.05,0,.08,0,.06-.01.13-.02.2,0,.07,0,.15,0,.23,0,.09.02.17.04.25,0,0,0,0,0,0l-1.13,1.12s-.12.03-.14-.03c-.04-.09-.08-.19-.11-.29-.02-.05-.03-.1-.04-.14-.01-.05-.03-.1-.04-.15,0-.04-.02-.08-.03-.12-.07-.32-.09-.66-.07-.98.02-.33.08-.64.18-.94.09-.27.2-.52.34-.76.02-.04.05-.08.07-.12.02-.04.05-.08.08-.12.32-.47.72-.86,1.2-1.15Z"/>
    <path class="cls-1" d="M17.8,16.69s0,0,0,0c.01-.01.02-.02.04-.03h.02c.21-.15.43-.25.65-.3.1-.03.21-.06.35-.07.2-.03.41-.03.61,0,.06,0,.12.01.19.03h0c.08.02.17.04.25.07.1.03.19.07.29.11h.03s0,.01,0,.02h.01s.01,0,.01,0c.25.14.47.3.65.49.46.47.71,1.09.71,1.74,0,.65-.25,1.27-.71,1.73-.45.45-1.04.7-1.68.72-.63.02-1.24-.19-1.7-.61-.06-.06-.12-.11-.18-.17-.03-.03-.04-.08-.01-.11.01-.02.02-.04.03-.05.02-.04.05-.08.07-.12.16-.27.29-.56.39-.86.06-.18.11-.38.14-.57h.01s.42.45.42.45l.03.04c.13.14.29.29.49.37.4.14.81-.13.98-.45.15-.28.12-.7-.16-.98-.05-.05-.12-.1-.19-.14-.31-.18-.65-.18-.95,0-.02,0-.04.02-.05.03-.09.06-.17.12-.24.2-.04.04-.1.1-.15.15-.06.06-.15.01-.15-.07.03-.46-.02-.92-.14-1.34-.01-.05-.03-.09-.04-.14-.01-.04-.03-.09-.05-.13Z"/>
  </g>
  <g>
    <path class="cls-1" d="M10.67,12.67c.45-.45,1.04-.7,1.68-.72.63-.02,1.24.19,1.7.61.08.08.16.15.23.22-.03.04-.05.08-.08.11-.02.04-.05.08-.07.12-.16.27-.29.56-.39.86-.06.18-.11.38-.14.57h-.01s-.42-.45-.42-.45l-.04-.04s-.04-.04-.06-.06c-.12-.12-.26-.24-.43-.3-.4-.14-.81.13-.98.45-.18.34-.1.87.35,1.13.31.18.65.18.95,0,.02,0,.04-.02.05-.03.09-.06.17-.12.24-.2.1-.09.28-.27.32-.32-.06.53-.02,1.08.12,1.57.01.05.03.09.04.14.01.04.03.09.05.13,0,0,0,0,0,0-.01.01-.02.02-.04.03h-.02c-.21.15-.43.25-.65.3-.1.03-.21.06-.35.07-.2.03-.41.03-.61,0-.05,0-.12-.01-.19-.03h0c-.08-.02-.17-.04-.26-.07-.1-.03-.19-.07-.28-.11h-.03s0-.01,0-.02h-.01s0,0,0,0c-.25-.13-.47-.3-.65-.48-.46-.47-.71-1.09-.71-1.74,0-.65.25-1.27.71-1.73Z"/>
    <path class="cls-1" d="M5.07,14.06c.72-.69,1.44-1.4,2.13-2.08,1.32-1.29,2.68-2.63,4.06-3.89,1.35-1.23,3.58-1.09,4.94.29.03.03.07.07.1.11.66.71,1.02,1.61,1.05,2.53-.09,0-.19.01-.28.03-.36.05-.7.14-1.02.28-.05.02-.1.04-.14.06-.05.02-.1.05-.15.07.12-.74-.16-1.52-.78-2.08-.83-.74-2.15-.71-2.95.08-1.28,1.23-2.52,2.46-3.84,3.75-.39.38-.78.77-1.18,1.16l4.88,4.97c.54.54,1.29.76,2.01.63.06-.01.12-.02.18-.04.06-.02.13-.04.19-.06.11-.04.23-.09.33-.15.54-.3.96-.85,1.09-1.42.01-.05.02-.1.03-.15,0-.02,0-.05,0-.08,0-.06.01-.13.02-.21,0-.07,0-.15,0-.23,0-.09-.02-.17-.04-.25,0,0,0,0,0,0l1.22-1.21c.06.13.12.26.17.41.02.05.03.1.04.14.01.05.03.1.04.15,0,.04.02.08.03.12.13.65.09,1.33-.11,1.92-.09.27-.2.52-.34.76-.02.04-.05.08-.07.12-.02.04-.05.08-.07.12-.32.47-.72.86-1.2,1.15-.06.03-.11.07-.17.1-.05.03-.11.06-.16.08-.34.16-.71.27-1.1.33-.08.01-.16.02-.24.02-.05,0-.09,0-.14,0-.05,0-.09,0-.14,0-.37,0-.72-.06-1.07-.18h0c-.09-.03-.17-.06-.25-.09-.4-.15-.79-.4-1.15-.73-.42-.38-.87-.81-1.36-1.29l-.16-.16c-.9-.88-1.79-1.8-2.65-2.69-.58-.59-1.17-1.21-1.76-1.8-.22-.22-.22-.36,0-.57Z"/>
  </g>
  <polygon class="cls-1" points="16.4 14.68 16.4 14.68 16.4 14.68 16.4 14.68"/>
</svg>